# xmcd
#
# Track frame offsets:
#	150
#	31322
#	51050
#	70457
#	84517
#	108783
#	128286
#	144637
#	161719
#	199911
#	222851
#	241292
#	255890
#	274935
#	294669
#	328072
#
# Disc length: 4631 seconds
#
# Revision: 1
# Processed by: cddbd v1.5PL3 Copyright (c) Steve Scherf et al.
# Submitted via: CDmax 2.0
#
DISCID=e8121510
DTITLE=Jorma Kaukonen - Live at the Columbus Music Hall, 11.04.00 - D2
DYEAR=2000
DGENRE=Blues
TTITLE0=The Terrible Operation
TTITLE1=Living In The Moment
TTITLE2=Embryonic Journey
TTITLE3=Good Shepherd
TTITLE4=Sea Child
TTITLE5=99 Year Blues
TTITLE6=I Am The Light Of This World
TTITLE7=Another Man Done Gone
TTITLE8=Parchman Farm
TTITLE9=Follow The Drinking Gourd
TTITLE10=Fool's Blues
TTITLE11=Home Of The Blues
TTITLE12=San Francisco Bay Blues
TTITLE13=Never Happen No More
TTITLE14=Mann's Fate
TTITLE15=Water Song
EXTD=11-04-00 \nColumbus Music Hall, Columbus, OH \nOpening act: Cowboy Angel
EXTD=s \n\nTrue Religion \nHesitation Blues \nUncle Sam Blues \nDeath Don't H
EXTD=ave No Mercy \nDo Not Go Gentle \nI See The Light \nThe Terrible Operati
EXTD=on \nLiving In The Moment \nEmbryonic Journey \nGood Shepherd \nSea Chil
EXTD=d \n99 Year Blues \nI Am The Light Of This World \nAnother Man Done Gon
EXTD=e \nParchman Farm \nFollow The Drinking Gourd \nFool's Blues \nHome Of T
EXTD=he Blues \nSan Francisco Bay Blues \nNever Happen No More \nMann's Fat
EXTD=e \n\nEncore: \nWater Song
EXTT0=
EXTT1=
EXTT2=
EXTT3=
EXTT4=
EXTT5=
EXTT6=
EXTT7=
EXTT8=
EXTT9=
EXTT10=
EXTT11=
EXTT12=
EXTT13=
EXTT14=
EXTT15=
PLAYORDER=
